HIERARCHY
ROOT Hips
{
	OFFSET 0.00000 0.00000 0.00000
	CHANNELS 6 Xposition Yposition Zposition Zrotation Yrotation Xrotation 
	JOINT LHipJoint
	{
		OFFSET 0 0 0
		CHANNELS 3 Zrotation Yrotation Xrotation
		JOINT LeftUpLeg
		{
			OFFSET 1.81638 -1.86202 0.89635
			CHANNELS 3 Zrotation Yrotation Xrotation
			JOINT LeftLeg
			{
				OFFSET 2.63464 -7.23861 0.00000
				CHANNELS 3 Zrotation Yrotation Xrotation
				JOINT LeftFoot
				{
					OFFSET 2.45871 -6.75336 0.00000
					CHANNELS 3 Zrotation Yrotation Xrotation
					JOINT LeftToeBase
					{
						OFFSET 0.34235 -0.94059 2.20020
						CHANNELS 3 Zrotation Yrotation Xrotation
						End Site
						{
							OFFSET 0.00000 -0.00000 1.18611
						}
					}
				}
			}
		}
	}
	JOINT RHipJoint
	{
		OFFSET 0 0 0
		CHANNELS 3 Zrotation Yrotation Xrotation
		JOINT RightUpLeg
		{
			OFFSET -1.84405 -1.86203 0.89635
			CHANNELS 3 Zrotation Yrotation Xrotation
			JOINT RightLeg
			{
				OFFSET -2.71067 -7.44751 0.00000
				CHANNELS 3 Zrotation Yrotation Xrotation
				JOINT RightFoot
				{
					OFFSET -2.47159 -6.79060 0.00000
					CHANNELS 3 Zrotation Yrotation Xrotation
					JOINT RightToeBase
					{
						OFFSET -0.26223 -0.72048 2.36007
						CHANNELS 3 Zrotation Yrotation Xrotation
						End Site
						{
							OFFSET -0.00000 -0.00000 1.23343
						}
					}
				}
			}
		}
	}
	JOINT LowerBack
	{
		OFFSET 0 0 0
		CHANNELS 3 Zrotation Yrotation Xrotation
		JOINT Spine
		{
			OFFSET 0.02089 1.99248 -0.22512
			CHANNELS 3 Zrotation Yrotation Xrotation
			JOINT Spine1
			{
				OFFSET 0.01476 2.01356 -0.03079
				CHANNELS 3 Zrotation Yrotation Xrotation
				JOINT Neck
				{
					OFFSET 0 0 0
					CHANNELS 3 Zrotation Yrotation Xrotation
					JOINT Neck1
					{
						OFFSET 0.04846 1.65098 0.06663
						CHANNELS 3 Zrotation Yrotation Xrotation
						JOINT Head
						{
							OFFSET -0.06061 1.60634 -0.07565
							CHANNELS 3 Zrotation Yrotation Xrotation
							End Site
							{
								OFFSET -0.02954 1.73562 -0.03642
							}
						}
					}
				}
				JOINT LeftShoulder
				{
					OFFSET 0 0 0
					CHANNELS 3 Zrotation Yrotation Xrotation
					JOINT LeftArm
					{
						OFFSET 3.45234 1.47051 -0.06993
						CHANNELS 3 Zrotation Yrotation Xrotation
						JOINT LeftForeArm
						{
							OFFSET 5.49313 -0.00000 0.00000
							CHANNELS 3 Zrotation Yrotation Xrotation
							JOINT LeftHand
							{
								OFFSET 3.29037 -0.00000 0.00000
								CHANNELS 3 Zrotation Yrotation Xrotation
								JOINT LeftFingerBase
								{
									OFFSET 0 0 0
									CHANNELS 3 Zrotation Yrotation Xrotation
									JOINT LeftHandIndex1
									{
										OFFSET 0.72966 -0.00000 0.00000
										CHANNELS 3 Zrotation Yrotation Xrotation
										End Site
										{
											OFFSET 0.58827 -0.00000 0.00000
										}
									}
								}
								JOINT LThumb
								{
									OFFSET 0 0 0
									CHANNELS 3 Zrotation Yrotation Xrotation
									End Site
									{
										OFFSET 0.59725 -0.00000 0.59725
									}
								}
							}
						}
					}
				}
				JOINT RightShoulder
				{
					OFFSET 0 0 0
					CHANNELS 3 Zrotation Yrotation Xrotation
					JOINT RightArm
					{
						OFFSET -3.41935 1.44327 0.20453
						CHANNELS 3 Zrotation Yrotation Xrotation
						JOINT RightForeArm
						{
							OFFSET -5.23684 -0.00000 0.00000
							CHANNELS 3 Zrotation Yrotation Xrotation
							JOINT RightHand
							{
								OFFSET -3.38251 -0.00000 0.00000
								CHANNELS 3 Zrotation Yrotation Xrotation
								JOINT RightFingerBase
								{
									OFFSET 0 0 0
									CHANNELS 3 Zrotation Yrotation Xrotation
									JOINT RightHandIndex1
									{
										OFFSET -0.69145 -0.00000 0.00000
										CHANNELS 3 Zrotation Yrotation Xrotation
										End Site
										{
											OFFSET -0.55747 -0.00000 0.00000
										}
									}
								}
								JOINT RThumb
								{
									OFFSET 0 0 0
									CHANNELS 3 Zrotation Yrotation Xrotation
									End Site
									{
										OFFSET -0.56598 -0.00000 0.56598
									}
								}
							}
						}
					}
				}
			}
		}
	}
}
MOTION
Frames: 15
Frame Time: .0083333
-33.5220 17.6384 -1.9245 -308.4650 79.3732 -310.9530 0.0000 0.0000 0.0000 -26.6599 -5.3790 6.6779 0.2353 3.1219 8.6183 -0.5150 14.3441 -12.6567 1.0885 -6.6307 -18.6258 0.0000 0.0000 0.0000 3.1524 14.6621 -0.5665 -1.9870 -8.8389 25.2928 -0.5421 -12.5063 -23.4893 -0.3592 3.8503 -10.6560 -1.1242 -2.9105 15.8005 12.7320 -2.5248 2.9911 15.4959 -0.8751 -4.9795 -1.8909 2.9184 -3.3533 -19.2599 3.1602 -10.6005 -5.5997 2.4901 -2.2376 0.0000 -0.0000 0.0000 27.9784 -22.2237 -34.9643 76.1704 -59.2648 -48.0528 -0.0000 0.0000 -15.8199 18.4663 2.2353 0.7462 -7.1250 0.0000 -0.0000 -6.5470 32.2904 2.0486 0.0000 -0.0000 0.0000 43.6690 -0.1494 37.8200 -44.2200 50.3806 -21.6362 0.0000 0.0000 3.9623 -22.2665 -4.8339 1.9761 7.1250 -0.0000 -0.0000 3.6604 -35.1821 0.8842
-33.5380 17.6438 -1.9038 -309.3420 79.5730 -311.7350 0.0000 0.0000 0.0000 -26.3737 -5.5642 6.4620 0.2548 3.2479 8.9698 -0.5093 14.4052 -12.9433 1.0659 -6.5635 -18.4286 0.0000 0.0000 0.0000 3.4310 14.4196 -0.7640 -1.9674 -8.7978 25.1648 -0.5365 -12.3299 -23.2520 -0.3522 3.8132 -10.5517 -1.1873 -2.8742 15.8984 12.6333 -2.5001 3.0471 15.4117 -0.8676 -4.9803 -1.8537 2.9280 -3.2335 -19.1928 3.1647 -10.5788 -5.5863 2.4906 -2.2521 -0.0000 0.0000 0.0000 27.7176 -22.5902 -34.9805 77.3470 -59.3863 -49.0647 -0.0000 0.0000 -16.1954 18.7529 2.3439 0.7955 -7.1250 0.0000 -0.0000 -6.3261 32.4116 1.9602 -0.0000 0.0000 0.0000 44.2111 0.2246 37.6167 -44.4842 50.5133 -21.8400 0.0000 0.0000 3.8626 -22.5693 -5.0483 2.0946 7.1250 -0.0000 -0.0000 3.4254 -35.4274 0.8068
-33.5543 17.6488 -1.8820 -310.3330 79.7563 -312.6490 0.0000 0.0000 0.0000 -26.0887 -5.7012 6.2740 0.2726 3.3587 9.2790 -0.5038 14.4615 -13.2042 1.0428 -6.4943 -18.2257 0.0000 0.0000 0.0000 3.7089 14.1538 -0.9691 -1.9497 -8.7605 25.0491 -0.5325 -12.1136 -22.9884 -0.3452 3.7753 -10.4454 -1.2463 -2.8288 16.0134 12.5169 -2.4647 3.1136 15.3014 -0.8556 -4.9830 -1.7833 2.9447 -3.1254 -19.1336 3.1827 -10.5310 -5.5799 2.4940 -2.2546 -0.0000 0.0000 0.0000 27.3267 -22.9339 -34.7564 78.6545 -59.5080 -50.1908 -0.0000 0.0000 -16.4952 18.9579 2.4408 0.8381 -7.1250 0.0000 -0.0000 -6.1695 32.5187 1.8951 -0.0000 0.0000 0.0000 44.7902 0.5741 37.4740 -44.7609 50.6508 -22.0537 0.0000 0.0000 3.7883 -22.8563 -5.2508 2.2091 7.1250 -0.0000 -0.0000 3.2019 -35.6601 0.7358
-33.5711 17.6534 -1.8592 -311.4440 79.9253 -313.7010 0.0000 0.0000 0.0000 -25.7999 -5.8069 6.1112 0.2892 3.4581 9.5570 -0.4990 14.5215 -13.4527 1.0211 -6.4283 -18.0324 0.0000 0.0000 0.0000 3.9919 13.8690 -1.1752 -1.9332 -8.7254 24.9402 -0.5296 -11.8681 -22.7046 -0.3399 3.7467 -10.3650 -1.2969 -2.7757 16.1468 12.3825 -2.4195 3.1908 15.1623 -0.8394 -4.9878 -1.6760 2.9673 -3.0329 -19.0818 3.2126 -10.4587 -5.5811 2.4991 -2.2448 -0.0000 -0.0000 0.0000 26.8066 -23.2399 -34.2892 80.0891 -59.6256 -51.4277 -0.0000 0.0000 -16.7061 19.0806 2.5332 0.8759 -7.1250 0.0000 -0.0000 -6.0784 32.6191 1.8521 -0.0000 -0.0000 0.0000 45.4065 0.8980 37.3926 -45.0541 50.7950 -22.2807 0.0000 0.0000 3.7396 -23.1044 -5.4333 2.3133 7.1250 -0.0000 -0.0000 3.0086 -35.8702 0.6759
-33.5881 17.6576 -1.8354 -312.6520 80.0807 -314.8680 0.0000 0.0000 0.0000 -25.5820 -6.5909 6.2316 0.3051 3.5513 9.8177 -0.5822 15.3256 -13.7044 1.0002 -6.3642 -17.8448 0.0000 0.0000 0.0000 4.2789 13.5657 -1.3764 -1.9165 -8.6900 24.8302 -0.5278 -11.5963 -22.4047 -0.3356 3.7229 -10.2985 -1.3402 -2.7172 16.2939 12.2300 -2.3681 3.2806 14.9952 -0.8213 -4.9892 -1.5350 2.9944 -2.9543 -19.0318 3.2512 -10.3703 -5.5877 2.5052 -2.2261 0.0000 0.0000 0.0000 26.1550 -23.5049 -33.5900 81.6480 -59.7348 -52.7734 -0.0000 0.0000 -16.8279 19.1172 2.6305 0.9114 -7.1250 0.0000 -0.0000 -6.0571 32.7224 1.8303 0.0000 0.0000 0.0000 46.0574 1.2013 37.3715 -45.3657 50.9464 -22.5224 0.0000 0.0000 3.7128 -23.2978 -5.5877 2.4010 7.1250 -0.0000 -0.0000 2.8583 -36.0475 0.6297
-33.6056 17.6615 -1.8107 -313.9790 80.2312 -316.1650 0.0000 0.0000 0.0000 -25.3372 -7.2799 6.3315 0.3211 3.6421 10.0720 -0.6611 16.0533 -13.9472 0.9776 -6.2941 -17.6402 0.0000 0.0000 0.0000 4.5828 13.2458 -1.5672 -1.8983 -8.6509 24.7094 -0.5239 -11.3175 -22.0797 -0.3337 3.7126 -10.2694 -1.3650 -2.6563 16.4564 12.0626 -2.3116 3.3804 14.7979 -0.8012 -4.9907 -1.3687 3.0217 -2.8909 -18.9745 3.2937 -10.2628 -5.5954 2.5094 -2.1982 -0.0000 -0.0000 0.0000 25.3653 -23.7281 -32.6609 83.3346 -59.8315 -54.2309 -0.0000 0.0000 -16.8878 19.0692 2.7532 0.9513 -7.1250 0.0000 -0.0000 -6.1063 32.8501 1.8265 -0.0000 -0.0000 0.0000 46.7381 1.4790 37.4109 -45.7043 51.1089 -22.7857 0.0000 0.0000 3.7062 -23.4299 -5.7102 2.4689 7.1250 -0.0000 -0.0000 2.7568 -36.1876 0.5978
-33.6235 17.6654 -1.7850 -315.4370 80.3733 -317.6000 0.0000 0.0000 0.0000 -25.0627 -7.8792 6.4033 0.3374 3.7327 10.3257 -0.7325 16.6973 -14.2026 0.9510 -6.2104 -17.3961 0.0000 0.0000 0.0000 4.9046 12.9239 -1.7459 -1.8773 -8.6057 24.5693 -0.5176 -11.0430 -21.7379 -0.3350 3.7194 -10.2886 -1.3768 -2.5903 16.6226 11.8836 -2.2476 3.4915 14.5764 -0.7784 -4.9846 -1.1824 3.0465 -2.8406 -18.9104 3.3354 -10.1407 -5.6037 2.5105 -2.1635 0.0000 -0.0000 0.0000 24.4294 -23.9083 -31.5144 85.1630 -59.9114 -55.8123 -0.0000 0.0000 -16.9201 18.9562 2.9187 1.0019 -7.1250 0.0000 -0.0000 -6.2120 33.0207 1.8327 0.0000 -0.0000 0.0000 47.4409 1.7321 37.5056 -46.0669 51.2806 -23.0682 0.0000 0.0000 3.7245 -23.5014 -5.7958 2.5143 7.1250 -0.0000 -0.0000 2.7031 -36.2845 0.5798
-33.6417 17.6698 -1.7584 -317.0000 80.5149 -319.1420 0.0000 0.0000 0.0000 -24.7491 -8.3692 6.4294 0.3545 3.8254 10.5858 -0.7901 17.2235 -14.4774 0.9179 -6.1044 -17.0876 0.0000 0.0000 0.0000 5.2477 12.6078 -1.9018 -1.8523 -8.5514 24.4018 -0.5113 -10.7685 -21.3962 -0.3333 3.7103 -10.2631 -1.3677 -2.5226 16.7939 11.6954 -2.1785 3.6100 14.3297 -0.7534 -4.9754 -0.9778 3.0626 -2.8057 -18.8446 3.3693 -9.9946 -5.6137 2.5044 -2.1194 -0.0000 -0.0000 0.0000 23.3381 -24.0556 -30.1599 87.1334 -59.9689 -57.5177 -0.0000 0.0000 -16.9581 18.7867 3.1302 1.0641 -7.1250 0.0000 -0.0000 -6.3684 33.2375 1.8457 -0.0000 -0.0000 0.0000 48.1574 1.9519 37.6570 -46.4682 51.4678 -23.3817 0.0000 0.0000 3.7453 -23.5034 -5.8591 2.5419 7.1250 -0.0000 -0.0000 2.7062 -36.3534 0.5759
-33.6602 17.6750 -1.7308 -318.6940 80.6593 -320.8120 0.0000 0.0000 0.0000 -24.3861 -8.7503 6.4038 0.3726 3.9205 10.8532 -0.8302 17.6216 -14.7877 0.8741 -5.9607 -16.6704 0.0000 0.0000 0.0000 5.6192 12.3081 -2.0341 -1.8227 -8.4865 24.2017 -0.5034 -10.5073 -21.0543 -0.3291 3.6868 -10.1971 -1.3342 -2.4530 16.9685 11.5034 -2.1023 3.7326 14.0625 -0.7250 -4.9661 -0.7554 3.0709 -2.7876 -18.7851 3.3968 -9.8196 -5.6276 2.4919 -2.0638 0.0000 -0.0000 0.0000 22.0829 -24.1757 -28.6078 89.2328 -59.9978 -59.3356 -0.0000 0.0000 -17.0172 18.5732 3.3924 1.1391 -7.1250 0.0000 -0.0000 -6.5662 33.5055 1.8608 0.0000 -0.0000 0.0000 48.8761 2.1299 37.8673 -46.9138 51.6723 -23.7308 0.0000 0.0000 3.7661 -23.4471 -5.9148 2.5591 7.1250 -0.0000 -0.0000 2.7577 -36.4108 0.5830
-33.6788 17.6810 -1.7022 -320.4890 80.8028 -322.5740 0.0000 0.0000 0.0000 -23.9760 -9.0138 6.3152 0.3913 4.0170 11.1244 -0.8501 17.8771 -15.1140 0.8245 -5.7933 -16.1859 0.0000 0.0000 0.0000 6.0138 12.0361 -2.1434 -1.7883 -8.4105 23.9680 -0.4924 -10.2780 -20.7126 -0.3236 3.6564 -10.1119 -1.2840 -2.3796 17.1366 11.3086 -2.0184 3.8604 13.7797 -0.6930 -4.9495 -0.5240 3.0694 -2.7886 -18.7275 3.4168 -9.6081 -5.6425 2.4721 -1.9948 -0.0000 -0.0000 0.0000 20.6637 -24.2729 -26.8759 91.4352 -59.9922 -61.2429 -0.0000 0.0000 -17.1060 18.3516 3.6913 1.2234 -7.1250 0.0000 -0.0000 -6.7758 33.8104 1.8706 -0.0000 -0.0000 0.0000 49.5933 2.2706 38.1273 -47.3910 51.8875 -24.1057 0.0000 0.0000 3.7986 -23.3375 -5.9721 2.5703 7.1250 -0.0000 -0.0000 2.8544 -36.4669 0.5996
-33.6980 17.6879 -1.6727 -322.3830 80.9511 -324.4230 0.0000 0.0000 0.0000 -23.5157 -9.1703 6.1587 0.4110 4.1154 11.4017 -0.8483 17.9876 -15.4553 0.7689 -5.5994 -15.6264 0.0000 0.0000 0.0000 6.4324 11.7875 -2.2352 -1.7492 -8.3230 23.6995 -0.4783 -10.0829 -20.3722 -0.3173 3.6207 -10.0120 -1.2071 -2.3035 17.3002 11.1127 -1.9259 3.9884 13.4777 -0.6565 -4.9327 -0.2857 3.0590 -2.8118 -18.6732 3.4320 -9.3495 -5.6582 2.4458 -1.9083 0.0000 -0.0000 0.0000 19.0836 -24.3676 -24.9745 93.6770 -59.9488 -63.1838 -0.0000 0.0000 -17.2112 18.0997 4.0073 1.3085 -7.1250 0.0000 -0.0000 -7.0139 34.1308 1.8823 0.0000 -0.0000 0.0000 50.3038 2.3662 38.4373 -47.8918 52.1090 -24.5003 0.0000 0.0000 3.8623 -23.1934 -6.0307 2.5774 7.1250 -0.0000 -0.0000 2.9802 -36.5223 0.6220
-33.7177 17.6957 -1.6423 -324.3370 81.1030 -326.3100 0.0000 0.0000 0.0000 -23.0112 -9.2272 5.9228 0.4318 4.2170 11.6881 -0.8258 17.9549 -15.7849 0.7146 -5.4022 -15.0595 0.0000 0.0000 0.0000 6.8680 11.5722 -2.3148 -1.7059 -8.2246 23.3985 -0.4608 -9.9340 -20.0403 -0.3102 3.5804 -9.8991 -1.1096 -2.2252 17.4575 10.9160 -1.8260 4.1110 13.1612 -0.6158 -4.9202 -0.0383 3.0436 -2.8593 -18.6284 3.4484 -9.0360 -5.6768 2.4156 -1.8012 0.0000 0.0000 0.0000 17.3420 -24.4595 -22.9108 95.9027 -59.8679 -65.1096 -0.0000 0.0000 -17.3074 17.8291 4.3074 1.3838 -7.1250 0.0000 -0.0000 -7.2676 34.4329 1.8976 0.0000 0.0000 0.0000 51.0044 2.4171 38.7950 -48.4043 52.3313 -24.9054 0.0000 0.0000 3.9579 -23.0165 -6.0994 2.5845 7.1250 -0.0000 -0.0000 3.1347 -36.5868 0.6494
-33.7379 17.7045 -1.6112 -326.3670 81.2641 -328.2500 0.0000 0.0000 0.0000 -22.4616 -9.2050 5.6098 0.4538 4.3216 11.9834 -0.7887 17.8058 -16.0614 0.6659 -5.2187 -14.5334 0.0000 0.0000 0.0000 7.3251 11.3916 -2.3877 -1.6592 -8.1169 23.0697 -0.4385 -9.8397 -19.7096 -0.3031 3.5396 -9.7849 -0.9836 -2.1459 17.6093 10.7196 -1.7187 4.2263 12.8268 -0.5707 -4.9141 0.2136 3.0254 -2.9390 -18.5860 3.4718 -8.6525 -5.6949 2.3831 -1.6675 0.0000 -0.0000 0.0000 15.4512 -24.5717 -20.6978 98.0170 -59.7557 -66.9372 -0.0000 0.0000 -17.3670 17.5307 4.5671 1.4409 -7.1250 0.0000 -0.0000 -7.5417 34.6903 1.9227 0.0000 -0.0000 0.0000 51.6976 2.4305 39.1933 -48.9224 52.5515 -25.3161 0.0000 0.0000 4.0755 -22.7952 -6.2056 2.6011 7.1250 -0.0000 -0.0000 3.3301 -36.6889 0.6817
-33.7590 17.7140 -1.5797 -328.4440 81.4353 -330.2080 0.0000 0.0000 0.0000 -21.8757 -9.1166 5.2189 0.4770 4.4292 12.2873 -0.7394 17.5506 -16.2785 0.6242 -5.0559 -14.0679 0.0000 0.0000 0.0000 7.7957 11.2438 -2.4609 -1.6102 -8.0020 22.7202 -0.4131 -9.7956 -19.3912 -0.2954 3.4951 -9.6603 -0.8291 -2.0658 17.7541 10.5220 -1.6046 4.3332 12.4732 -0.5216 -4.9147 0.4679 3.0049 -3.0535 -18.5440 3.5032 -8.1940 -5.7116 2.3485 -1.5052 -0.0000 -0.0000 0.0000 13.4179 -24.7085 -18.3435 99.9571 -59.6220 -68.6121 -0.0000 0.0000 -17.3761 17.2084 4.7672 1.4744 -7.1250 0.0000 -0.0000 -7.8300 34.8836 1.9602 -0.0000 -0.0000 0.0000 52.3850 2.4142 39.6181 -49.4264 52.7615 -25.7168 0.0000 0.0000 4.2151 -22.5073 -6.3468 2.6227 7.1250 -0.0000 -0.0000 3.5852 -36.8245 0.7221
-33.7809 17.7240 -1.5477 -330.5090 81.6133 -332.1240 0.0000 0.0000 0.0000 -21.2709 -8.9867 4.7506 0.5018 4.5410 12.6040 -0.6824 17.2116 -16.4262 0.5937 -4.9331 -13.7179 0.0000 0.0000 0.0000 8.2660 11.1334 -2.5417 -1.5600 -7.8821 22.3566 -0.3854 -9.8017 -19.0940 -0.2875 3.4482 -9.5291 -0.6566 -1.9842 17.8879 10.3211 -1.4851 4.4316 12.1042 -0.4694 -4.9189 0.7298 2.9844 -3.2006 -18.5092 3.5449 -7.6639 -5.7302 2.3136 -1.3155 0.0000 0.0000 0.0000 11.2553 -24.8772 -15.8557 101.6505 -59.4809 -70.0721 -0.0000 0.0000 -17.3237 16.8803 4.9034 1.4858 -7.1250 0.0000 -0.0000 -8.1163 35.0097 2.0080 0.0000 0.0000 0.0000 53.0644 2.3751 40.0640 -49.9118 52.9599 -26.1038 0.0000 0.0000 4.3708 -22.1536 -6.5098 2.6429 7.1250 -0.0000 -0.0000 3.8988 -36.9789 0.7708
